<svg xmlns="http://www.w3.org/2000/svg" width="600" height="144"><style>@media (prefers-color-scheme:dark){.a{fill:#fff}}</style><path class="a" fill="#020B13" d="M405.762 43.413c9.083 0 13.67 4.496 13.761 13.38l.001.27v29.203c0 9.194-4.496 13.891-13.596 13.984l-.278.002h-22.825v11.189H370.63V57.175q0-13.625 13.818-13.761l.28-.001zM212.308 32v68.252H200V32zm41.063 11.413c9.193 0 13.782 4.605 13.872 13.926l.002.283v13.539l-36.588 7.944v5.531l.005.316.004.153.01.297.016.284.02.273.025.261.031.25.018.12.039.233c.296 1.592 1.032 2.39 2.572 2.78l.226.054.237.047.248.043.26.038.271.033.284.03.296.025.309.02.321.019.507.02.355.01.557.01.59.005.408.001h28.867v10.294h-34.574q-13.956 0-14.096-13.489l-.001-.273V57.399c0-9.305 5.044-13.894 13.83-13.985l.267-.001zm61.986 0v10.293h-27.134l-.323.006-.307.01-.29.016-.14.01-.265.024c-1.766.19-2.45.823-2.67 2.364l-.028.232-.023.246-.01.128-.013.265-.01.28-.004.295v4.74q0 .24.006.462l.01.291.008.14.02.27.027.257c.238 1.96 1.125 2.712 3.532 2.818l.316.01.333.003h15.44q1.57-.001 2.948.163l.419.055c5.8.823 8.868 4.047 8.94 10.731v11.093c0 7.643-4.166 11.558-12.61 11.636h-30.242V89.959h26.405l.373-.002.354-.007.336-.012.161-.008.31-.02.292-.026.276-.032c1.74-.229 2.457-.86 2.707-2.256l.035-.22.028-.234.02-.246.016-.26.006-.133.007-.28.002-.292v-5.52l-.007-.288-.007-.139-.017-.267c-.17-2.043-1.054-2.857-3.405-3.034l-.309-.02-.16-.006-.333-.01-.172-.002h-13.492q-.447 0-.88-.01l-.568-.015c-8.798-.31-12.35-3.57-12.425-11.362v-9.76c0-7.976 4.276-12.003 12.721-12.083l.257-.001zm48.895 0v10.293h-27.134l-.323.006-.307.01-.29.016-.14.01-.265.024c-1.766.19-2.45.823-2.67 2.364l-.028.232-.023.246-.01.128-.013.265-.01.28-.004.295v4.74q0 .24.006.462l.01.291.009.14.02.27.026.257c.238 1.96 1.125 2.712 3.532 2.818l.316.01.333.003h15.44q1.572-.001 2.948.163l.42.055c5.799.823 8.867 4.047 8.939 10.731l.001.24v10.853c0 7.643-4.167 11.558-12.61 11.636h-30.243V89.959h26.405l.373-.002.354-.007.336-.012.161-.008.31-.02.292-.026.276-.032c1.74-.229 2.457-.86 2.707-2.256l.035-.22.028-.234.021-.246.015-.26q.004-.065.006-.133l.007-.28.002-.292v-5.52l-.007-.288-.006-.139-.018-.267c-.17-2.043-1.054-2.857-3.405-3.034l-.309-.02-.16-.006-.332-.01-.173-.002h-13.492q-.447 0-.88-.01l-.568-.015c-8.798-.31-12.35-3.57-12.425-11.362v-9.76c0-7.976 4.276-12.003 12.721-12.083l.257-.001zm94.993 0c9.415 0 14.225 4.605 14.32 13.817l.001.28v29.315c0 8.308-4.715 13.326-12.735 13.425l-.244.002h-21.594c-8.53 0-13.769-4.387-13.873-12.834l-.001-.257V77.09c0-8.53 5.264-13.33 14.054-13.425l.268-.002h22.49v-4.81c0-3.967-1.628-5.221-5.63-5.259h-29.056V43.412zm53.482 0c9.526 0 14.337 4.496 14.432 13.597l.002.277v42.965h-12.196V60.114l-.008-.375-.006-.182-.018-.354c-.216-3.528-1.571-4.88-4.817-5.12l-.325-.02-.167-.008-.344-.01-.177-.002-11.704-.001q-.182 0-.357.003l-.343.01-.167.007-.324.02c-2.753.206-4.088 1.218-4.547 3.698l-.05.293-.04.305q-.03.235-.05.485l-.023.34q-.01.172-.016.354l-.01.368-.003.19v40.137H479.16V57.287c0-9.194 4.715-13.782 14.255-13.873l.29-.001zm54.937 0c9.194 0 13.782 4.605 13.873 13.926l.001.283v13.539l-36.587 7.944v5.531l.005.316.003.153.01.297.016.284.02.273.026.261.03.25.018.12.04.233c.296 1.592 1.032 2.39 2.572 2.78l.226.054.236.047.248.043.26.038.272.033.284.03.296.025.308.02.322.019.507.02.354.01.558.01.59.005.407.001h28.868v10.294h-34.574q-13.956 0-14.096-13.489l-.002-.273V57.399c0-9.305 5.045-13.894 13.83-13.985l.268-.001zM600 32v68.252h-12.308V32zM461.93 73.175h-19.916c-3.547 0-4.925 1.215-5.203 4.484l-.025.34-.01.175-.013.361q-.006.185-.007.376v5.9q0 .457.02.867l.02.319c.198 2.652 1.18 3.68 3.768 3.909l.313.023q.399.025.847.028l15.283.001q.17 0 .333-.003l.318-.009.154-.007.297-.019q.072-.004.143-.012l.277-.029c2.066-.25 2.95-1.137 3.26-3.206l.037-.277.017-.143.028-.298.022-.311.017-.326.011-.34.007-.356.002-.37zM402.64 54.05l-.507-.008-13.937-.001q-.177 0-.348.003l-.333.008-.16.007-.312.018-.298.024c-2.619.249-3.585 1.327-3.772 4.209l-.018.327-.012.343-.003.177-.003.366v30.098h19.021q.619 0 1.148-.043l.295-.03c2.356-.268 3.329-1.313 3.664-3.623l.038-.29.017-.149.03-.308.012-.16.02-.328.016-.341.01-.356.007-.369.002-.38V59.342l-.005-.352-.009-.337-.013-.323-.009-.156-.021-.3-.013-.145-.03-.28-.036-.266c-.287-1.902-1.093-2.726-2.98-3.013l-.264-.036-.278-.03-.144-.012-.299-.02-.155-.008zm-152.243-.344h-14.48q-.337 0-.648.012l-.305.017c-2.892.192-4.114 1.378-4.367 4.727l-.023.354q-.024.453-.028.955v9.934l24.95-5.594v-4.128l-.008-.411c-.13-4.366-1.67-5.823-5.091-5.866m314.294 0H550.21q-.336 0-.647.012l-.305.017c-2.892.192-4.114 1.378-4.367 4.727l-.023.354q-.024.453-.028.955v9.934l24.95-5.594v-4.128l-.009-.411c-.129-4.366-1.67-5.823-5.09-5.866"/><path fill="#0CA750" d="M130.966 0C138.152 0 144 5.848 144 13.034v117.932c0 7.186-5.848 13.034-13.034 13.034H13.034C5.848 144 0 138.152 0 130.966V13.034C0 5.848 5.848 0 13.034 0Zm0 7.079H13.034a5.96 5.96 0 0 0-5.955 5.955v117.932a5.96 5.96 0 0 0 5.955 5.955h117.932a5.96 5.96 0 0 0 5.955-5.955V13.034a5.96 5.96 0 0 0-5.955-5.955"/><path fill="#2BB656" d="M31.65 114.936a7.78 7.78 0 0 1-7.78-7.78v-70.3a7.78 7.78 0 0 1 7.78-7.78 7.78 7.78 0 0 1 7.78 7.78v70.3a7.78 7.78 0 0 1-7.78 7.78m34.68-7.786V70.2a7.78 7.78 0 0 0-7.78-7.781 7.78 7.78 0 0 0-7.78 7.78v36.951a7.78 7.78 0 0 0 7.78 7.78 7.78 7.78 0 0 0 7.78-7.78m53.8-33.355V36.844a7.78 7.78 0 0 0-7.78-7.78 7.78 7.78 0 0 0-7.78 7.78v36.95a7.78 7.78 0 0 0 7.78 7.781 7.78 7.78 0 0 0 7.78-7.78m-26.9 33.355v-70.3a7.78 7.78 0 0 0-7.78-7.78 7.78 7.78 0 0 0-7.78 7.78v70.3a7.78 7.78 0 0 0 7.78 7.78 7.78 7.78 0 0 0 7.78-7.78"/></svg>